<?xml version="1.0" encoding="UTF-8"?><svg xmlns="http://www.w3.org/2000/svg" xmlns:xlink="http://www.w3.org/1999/xlink" width="1125pt" zoomAndPan="magnify" viewBox="0 0 1125 374.999991" height="374.999991pt" preserveAspectRatio="xMidYMid meet" version="1.2"><defs><g/></defs><g xml:id="surface1" id="surface1"><path style="fill:none;stroke-width:1;stroke-linecap:round;stroke-linejoin:miter;stroke:rgb(94.509888%,60.389709%,26.269531%);stroke-opacity:1;stroke-miterlimit:4;" d="M 0.500115 0.0000882616 L 8.983438 0.0000882616 " transform="matrix(0.00000000000000092,15.027185,-15.342465,0.000000000000000939,51.001354,58.711242)"/><path style="fill:none;stroke-width:1;stroke-linecap:round;stroke-linejoin:miter;stroke:rgb(94.509888%,60.389709%,26.269531%);stroke-opacity:1;stroke-miterlimit:4;" d="M 0.500115 0.0000217423 L 8.983438 0.0000217423 " transform="matrix(0.00000000000000092,15.027185,-15.342465,0.000000000000000939,168.582365,58.711242)"/><path style="fill:none;stroke-width:1;stroke-linecap:round;stroke-linejoin:miter;stroke:rgb(94.509888%,60.389709%,26.269531%);stroke-opacity:1;stroke-miterlimit:4;" d="M 0.499979 -0.000129618 L 12.046179 0.0000115783 " transform="matrix(10.127591,11.071224,-11.320467,10.35559,46.505266,60.422998)"/><path style="fill:none;stroke-width:1;stroke-linecap:round;stroke-linejoin:miter;stroke:rgb(96.859741%,45.878601%,14.118958%);stroke-opacity:1;stroke-miterlimit:4;" d="M 0.49992 0.000113907 L 8.983503 0.000113907 " transform="matrix(0.00000000000000092,15.027185,-15.342465,0.000000000000000939,206.806435,173.964173)"/><path style="fill:none;stroke-width:1;stroke-linecap:round;stroke-linejoin:miter;stroke:rgb(96.859741%,45.878601%,14.118958%);stroke-opacity:1;stroke-miterlimit:4;" d="M 0.499964 -0.000019027 L 12.04634 -0.0000656908 " transform="matrix(10.127591,11.071224,-11.320467,10.35559,84.729318,175.675916)"/><g style="fill:rgb(98.039246%,98.039246%,98.039246%);fill-opacity:1;"><g transform="translate(245.463541, 217.020703)"><path style="stroke:none;" d="M 89.59375 0 L 89.59375 -72.75 L 57.28125 -16.46875 L 52.15625 -16.46875 L 19.84375 -72.75 L 19.84375 0 L 11.109375 0 L 11.109375 -88.59375 L 20.09375 -88.59375 L 54.65625 -27.953125 L 89.46875 -88.59375 L 98.328125 -88.59375 L 98.328125 0 Z M 89.59375 0 "/></g></g><g style="fill:rgb(98.039246%,98.039246%,98.039246%);fill-opacity:1;"><g transform="translate(368.36263, 217.020703)"><path style="stroke:none;" d="M 38.5625 -88.59375 L 45.921875 -88.59375 L 82.734375 0 L 73.5 0 L 62.015625 -27.703125 L 22.21875 -27.703125 L 10.859375 0 L 1.5 0 Z M 60.015625 -34.5625 L 42.171875 -78.359375 L 24.078125 -34.5625 Z M 60.015625 -34.5625 "/></g></g><g style="fill:rgb(98.039246%,98.039246%,98.039246%);fill-opacity:1;"><g transform="translate(466.183024, 217.020703)"><path style="stroke:none;" d="M 11.109375 0 L 11.109375 -88.59375 L 48.546875 -88.59375 C 52.367188 -88.59375 55.878906 -87.78125 59.078125 -86.15625 C 62.285156 -84.539062 65.050781 -82.421875 67.375 -79.796875 C 69.707031 -77.171875 71.519531 -74.195312 72.8125 -70.875 C 74.101562 -67.550781 74.75 -64.179688 74.75 -60.765625 C 74.75 -57.523438 74.269531 -54.425781 73.3125 -51.46875 C 72.351562 -48.519531 71.019531 -45.859375 69.3125 -43.484375 C 67.613281 -41.117188 65.554688 -39.125 63.140625 -37.5 C 60.722656 -35.875 58.019531 -34.769531 55.03125 -34.1875 L 76.734375 0 L 66.875 0 L 46.046875 -32.6875 L 19.84375 -32.6875 L 19.84375 0 Z M 19.84375 -40.421875 L 48.796875 -40.421875 C 51.367188 -40.421875 53.710938 -40.984375 55.828125 -42.109375 C 57.953125 -43.234375 59.765625 -44.75 61.265625 -46.65625 C 62.765625 -48.570312 63.929688 -50.738281 64.765625 -53.15625 C 65.597656 -55.570312 66.015625 -58.109375 66.015625 -60.765625 C 66.015625 -63.429688 65.535156 -65.988281 64.578125 -68.4375 C 63.617188 -70.894531 62.328125 -73.035156 60.703125 -74.859375 C 59.078125 -76.691406 57.160156 -78.148438 54.953125 -79.234375 C 52.753906 -80.316406 50.453125 -80.859375 48.046875 -80.859375 L 19.84375 -80.859375 Z M 19.84375 -40.421875 "/></g></g><g style="fill:rgb(98.039246%,98.039246%,98.039246%);fill-opacity:1;"><g transform="translate(561.133732, 217.020703)"><path style="stroke:none;" d="M 11.109375 0 L 11.109375 -88.46875 L 19.84375 -88.46875 L 19.84375 -37.0625 L 68.625 -88.59375 L 78.234375 -88.59375 L 42.046875 -49.65625 L 80.109375 0 L 70.5 0 L 36.5625 -44.546875 L 19.84375 -27.203125 L 19.84375 0 Z M 11.109375 0 "/></g></g><g style="fill:rgb(98.039246%,98.039246%,98.039246%);fill-opacity:1;"><g transform="translate(654.836759, 217.020703)"><path style="stroke:none;" d="M 70.625 -7.734375 L 70.625 0 L 11.109375 0 L 11.109375 -88.59375 L 69.5 -88.59375 L 69.5 -80.859375 L 19.84375 -80.859375 L 19.84375 -48.921875 L 63.140625 -48.921875 L 63.140625 -41.546875 L 19.84375 -41.546875 L 19.84375 -7.734375 Z M 70.625 -7.734375 "/></g></g><g style="fill:rgb(98.039246%,98.039246%,98.039246%);fill-opacity:1;"><g transform="translate(744.297599, 217.020703)"><path style="stroke:none;" d="M 74 -80.859375 L 42.421875 -80.859375 L 42.421875 0 L 33.6875 0 L 33.6875 -80.859375 L 2.125 -80.859375 L 2.125 -88.59375 L 74 -88.59375 Z M 74 -80.859375 "/></g></g><g style="fill:rgb(98.039246%,98.039246%,98.039246%);fill-opacity:1;"><g transform="translate(833.883226, 217.020703)"><path style="stroke:none;" d="M 11.109375 0 L 11.109375 -88.59375 L 19.84375 -88.59375 L 19.84375 0 Z M 11.109375 0 "/></g></g><g style="fill:rgb(98.039246%,98.039246%,98.039246%);fill-opacity:1;"><g transform="translate(878.302275, 217.020703)"><path style="stroke:none;" d="M 19.84375 -72.375 L 19.84375 0 L 11.109375 0 L 11.109375 -88.59375 L 17.84375 -88.59375 L 76.484375 -14.84375 L 76.484375 -88.46875 L 85.21875 -88.46875 L 85.21875 0 L 77.609375 0 Z M 19.84375 -72.375 "/></g></g><g style="fill:rgb(98.039246%,98.039246%,98.039246%);fill-opacity:1;"><g transform="translate(988.100547, 217.020703)"><path style="stroke:none;" d="M 75.125 -12.984375 C 66.882812 -3.910156 57.398438 0.625 46.671875 0.625 C 40.679688 0.625 35.164062 -0.660156 30.125 -3.234375 C 25.09375 -5.816406 20.726562 -9.226562 17.03125 -13.46875 C 13.332031 -17.71875 10.441406 -22.523438 8.359375 -27.890625 C 6.273438 -33.253906 5.234375 -38.765625 5.234375 -44.421875 C 5.234375 -50.328125 6.253906 -55.984375 8.296875 -61.390625 C 10.335938 -66.796875 13.1875 -71.554688 16.84375 -75.671875 C 20.5 -79.796875 24.820312 -83.082031 29.8125 -85.53125 C 34.8125 -87.988281 40.265625 -89.21875 46.171875 -89.21875 C 50.492188 -89.21875 54.441406 -88.738281 58.015625 -87.78125 C 61.597656 -86.820312 64.78125 -85.488281 67.5625 -83.78125 C 70.351562 -82.082031 72.765625 -80.046875 74.796875 -77.671875 C 76.835938 -75.304688 78.566406 -72.707031 79.984375 -69.875 L 73.25 -65.390625 C 70.332031 -70.878906 66.546875 -74.910156 61.890625 -77.484375 C 57.234375 -80.066406 51.953125 -81.359375 46.046875 -81.359375 C 41.140625 -81.359375 36.707031 -80.316406 32.75 -78.234375 C 28.800781 -76.160156 25.429688 -73.394531 22.640625 -69.9375 C 19.859375 -66.488281 17.71875 -62.535156 16.21875 -58.078125 C 14.71875 -53.628906 13.96875 -49.035156 13.96875 -44.296875 C 13.96875 -39.304688 14.820312 -34.5625 16.53125 -30.0625 C 18.238281 -25.570312 20.585938 -21.644531 23.578125 -18.28125 C 26.578125 -14.914062 30.09375 -12.234375 34.125 -10.234375 C 38.15625 -8.234375 42.546875 -7.234375 47.296875 -7.234375 C 52.367188 -7.234375 57.210938 -8.414062 61.828125 -10.78125 C 66.441406 -13.15625 70.875 -16.925781 75.125 -22.09375 L 75.125 -36.8125 L 55.40625 -36.8125 L 55.40625 -43.546875 L 82.484375 -43.546875 L 82.484375 0 L 75.125 0 Z M 75.125 -12.984375 "/></g></g><path style="fill:none;stroke-width:1;stroke-linecap:round;stroke-linejoin:miter;stroke:rgb(98.039246%,98.039246%,98.039246%);stroke-opacity:1;stroke-miterlimit:4;" d="M 0.499731 -0.0000823959 L 124.758707 -0.0000823959 " transform="matrix(6.748035,0,0,6.75,238.702015,244.8404)"/></g></svg>