<svg width="65" height="360" viewBox="0 0 65 360" fill="none" xmlns="http://www.w3.org/2000/svg">
<rect y="323.844" width="32.2848" height="36.036" fill="#0396A6" fill-opacity="0.15"/>
<rect width="32.2848" height="36.036" fill="#0396A6" fill-opacity="0.15"/>
<rect x="32.7153" y="72.0721" width="32.2848" height="36.036" fill="#0396A6" fill-opacity="0.15"/>
<rect y="35.5555" width="32.2848" height="36.036" fill="#03A6A6" fill-opacity="0.15"/>
<rect x="32.7153" y="287.327" width="32.2848" height="36.036" fill="#025951" fill-opacity="0.15"/>
<rect y="72.0721" width="32.2848" height="36.036" fill="#025951" fill-opacity="0.15"/>
<rect y="108.589" width="32.2848" height="36.036" fill="#012623" fill-opacity="0.15"/>
<rect x="32.7153" y="180.661" width="32.2848" height="36.036" fill="#012623" fill-opacity="0.15"/>
<rect y="145.105" width="32.2848" height="36.036" fill="#D8D9D7" fill-opacity="0.15"/>
<rect x="32.7153" width="32.2848" height="36.036" fill="#D8D9D7" fill-opacity="0.15"/>
<rect y="180.661" width="32.2848" height="36.036" fill="#03A6A6" fill-opacity="0.15"/>
<rect x="32.7153" y="250.811" width="32.2848" height="36.036" fill="#03A6A6" fill-opacity="0.15"/>
<rect x="32.7153" y="108.589" width="32.2848" height="36.036" fill="#03A6A6" fill-opacity="0.15"/>
<rect y="217.177" width="32.2848" height="36.036" fill="#025951" fill-opacity="0.15"/>
<rect y="251.772" width="32.2848" height="36.036" fill="#012623" fill-opacity="0.15"/>
<rect x="32.7153" y="35.5555" width="32.2848" height="36.036" fill="#012623" fill-opacity="0.15"/>
<rect y="322.883" width="32.2848" height="36.036" fill="#D8D9D7" fill-opacity="0.15"/>
<rect x="32.7153" y="215.255" width="32.2848" height="36.036" fill="#D8D9D7" fill-opacity="0.15"/>
<rect x="32.7153" y="145.105" width="32.2848" height="36.036" fill="#025951" fill-opacity="0.15"/>
</svg>
