<svg width="375" height="76" viewBox="0 0 375 76" fill="none" xmlns="http://www.w3.org/2000/svg">
<rect x="37.5" width="37.5" height="37.5" transform="rotate(90 37.5 0)" fill="#0396A6" fill-opacity="0.15"/>
<rect x="374.5" width="37.5" height="37.5" transform="rotate(90 374.5 0)" fill="#0396A6" fill-opacity="0.15"/>
<rect x="299.5" y="38" width="37.5" height="37.5" transform="rotate(90 299.5 38)" fill="#0396A6" fill-opacity="0.15"/>
<rect x="337.5" width="37.5" height="37.5" transform="rotate(90 337.5 0)" fill="#03A6A6" fill-opacity="0.15"/>
<rect x="38.5" y="38" width="37.5" height="37.5" transform="rotate(90 38.5 38)" fill="#025951" fill-opacity="0.15"/>
<rect x="299.5" width="37.5" height="37.5" transform="rotate(90 299.5 0)" fill="#025951" fill-opacity="0.15"/>
<rect x="261.5" width="37.5" height="37.5" transform="rotate(90 261.5 0)" fill="#012623" fill-opacity="0.15"/>
<rect x="186.5" y="38" width="37.5" height="37.5" transform="rotate(90 186.5 38)" fill="#012623" fill-opacity="0.15"/>
<rect x="223.5" width="37.5" height="37.5" transform="rotate(90 223.5 0)" fill="#D8D9D7" fill-opacity="0.15"/>
<rect x="374.5" y="38" width="37.5" height="37.5" transform="rotate(90 374.5 38)" fill="#D8D9D7" fill-opacity="0.15"/>
<rect x="186.5" width="37.5" height="37.5" transform="rotate(90 186.5 0)" fill="#03A6A6" fill-opacity="0.15"/>
<rect x="113.5" y="38" width="37.5" height="37.5" transform="rotate(90 113.5 38)" fill="#03A6A6" fill-opacity="0.15"/>
<rect x="261.5" y="38" width="37.5" height="37.5" transform="rotate(90 261.5 38)" fill="#03A6A6" fill-opacity="0.15"/>
<rect x="148.5" width="37.5" height="37.5" transform="rotate(90 148.5 0)" fill="#025951" fill-opacity="0.15"/>
<rect x="112.5" width="37.5" height="37.5" transform="rotate(90 112.5 0)" fill="#012623" fill-opacity="0.15"/>
<rect x="337.5" y="38" width="37.5" height="37.5" transform="rotate(90 337.5 38)" fill="#012623" fill-opacity="0.15"/>
<rect x="75.5" width="37.5" height="37.5" transform="rotate(90 75.5 0)" fill="#D8D9D7" fill-opacity="0.15"/>
<rect x="112.5" y="38" width="37.5" height="37.5" transform="rotate(90 112.5 38)" fill="#D8D9D7" fill-opacity="0.15"/>
<rect x="223.5" y="38" width="37.5" height="37.5" transform="rotate(90 223.5 38)" fill="#025951" fill-opacity="0.15"/>
</svg>
