<svg width="40" height="40" viewBox="0 0 40 40" fill="none" xmlns="http://www.w3.org/2000/svg">
<path d="M30 17.5C28.6233 17.4976 27.2725 17.8749 26.0962 18.5903C24.92 19.3058 23.9637 20.3316 23.3326 21.5552C22.7015 22.7788 22.42 24.1527 22.519 25.5259C22.618 26.8991 23.0937 28.2184 23.8937 29.3388L17.5 35.7325L19.2675 37.5L25.6612 31.1063C26.6229 31.7898 27.7324 32.2367 28.8994 32.4106C30.0664 32.5845 31.258 32.4805 32.3772 32.107C33.4964 31.7335 34.5116 31.1011 35.3403 30.2613C36.169 29.4214 36.7877 28.3978 37.1462 27.2737C37.5046 26.1496 37.5927 24.9567 37.4032 23.7922C37.2136 22.6276 36.7519 21.5242 36.0555 20.5718C35.3591 19.6193 34.4477 18.8447 33.3955 18.311C32.3433 17.7772 31.1799 17.4993 30 17.5V17.5ZM30 30C29.0111 30 28.0444 29.7068 27.2221 29.1574C26.3999 28.6079 25.759 27.8271 25.3806 26.9134C25.0022 25.9998 24.9031 24.9945 25.0961 24.0246C25.289 23.0547 25.7652 22.1637 26.4645 21.4645C27.1637 20.7652 28.0546 20.289 29.0245 20.0961C29.9945 19.9032 30.9998 20.0022 31.9134 20.3806C32.827 20.7591 33.6079 21.3999 34.1573 22.2222C34.7068 23.0444 35 24.0111 35 25C34.9983 26.3256 34.471 27.5964 33.5337 28.5337C32.5964 29.471 31.3256 29.9984 30 30V30Z" fill="#0396A6"/>
<path d="M21.25 15C21.9917 15 22.7167 14.7801 23.3334 14.368C23.9501 13.956 24.4307 13.3703 24.7145 12.6851C24.9984 11.9998 25.0726 11.2458 24.9279 10.5184C24.7833 9.79098 24.4261 9.1228 23.9017 8.59835C23.3772 8.0739 22.709 7.71675 21.9816 7.57206C21.2542 7.42736 20.5002 7.50162 19.8149 7.78545C19.1297 8.06928 18.544 8.54993 18.132 9.16661C17.7199 9.7833 17.5 10.5083 17.5 11.25C17.501 12.2443 17.8964 13.1975 18.5994 13.9006C19.3025 14.6036 20.2557 14.999 21.25 15V15ZM21.25 10C21.4972 10 21.7389 10.0733 21.9445 10.2107C22.15 10.348 22.3102 10.5432 22.4048 10.7716C22.4995 11.0001 22.5242 11.2514 22.476 11.4939C22.4278 11.7363 22.3087 11.9591 22.1339 12.1339C21.9591 12.3087 21.7363 12.4278 21.4939 12.476C21.2514 12.5242 21.0001 12.4995 20.7716 12.4049C20.5432 12.3102 20.348 12.15 20.2107 11.9445C20.0733 11.7389 20 11.4972 20 11.25C20 10.9185 20.1317 10.6005 20.3661 10.3661C20.6005 10.1317 20.9185 10 21.25 10Z" fill="#0396A6"/>
<path d="M15 30H5V22.4962L11.25 16.25L18.2325 23.2325L20 21.46L13.0175 14.4788C12.5487 14.0101 11.9129 13.7468 11.25 13.7468C10.5871 13.7468 9.95132 14.0101 9.4825 14.4788L5 18.96V5H30V12.5H32.5V5C32.4993 4.33716 32.2357 3.70166 31.767 3.23296C31.2983 2.76427 30.6628 2.50066 30 2.5H5C4.33716 2.50066 3.70166 2.76427 3.23296 3.23296C2.76427 3.70166 2.50066 4.33716 2.5 5V30C2.50066 30.6628 2.76427 31.2983 3.23296 31.767C3.70166 32.2357 4.33716 32.4993 5 32.5H15V30Z" fill="#0396A6"/>
</svg>
