<svg width="40" height="40" viewBox="0 0 40 40" fill="none" xmlns="http://www.w3.org/2000/svg">
<path d="M17.4999 27.4325C16.6332 27.3363 15.7808 27.1392 14.9599 26.845C14.9849 26.255 14.9999 25.64 14.9999 25V24.8V24.1575C15.7749 24.5275 16.6174 24.785 17.4999 24.9125V18.75C17.4999 17.7554 17.895 16.8016 18.5983 16.0983C19.3015 15.3951 20.2554 15 21.2499 15H27.4124C27.213 13.6147 26.6843 12.2975 25.8705 11.1588C25.0568 10.0201 23.9817 9.0933 22.7357 8.45607C21.4896 7.81883 20.1088 7.48979 18.7093 7.49656C17.3098 7.50334 15.9323 7.84573 14.6924 8.495C14.4947 7.67733 14.169 6.89604 13.7274 6.18C15.3481 5.37106 17.1401 4.96542 18.9512 4.99756C20.7622 5.02969 22.5388 5.49865 24.1297 6.36457C25.7207 7.23049 27.079 8.46776 28.0893 9.9712C29.0995 11.4746 29.7318 13.1998 29.9324 15H33.7499C34.7445 15 35.6983 15.3951 36.4016 16.0983C37.1048 16.8016 37.4999 17.7554 37.4999 18.75V31.25C37.4999 32.2446 37.1048 33.1984 36.4016 33.9017C35.6983 34.6049 34.7445 35 33.7499 35H21.2499C20.2554 35 19.3015 34.6049 18.5983 33.9017C17.895 33.1984 17.4999 32.2446 17.4999 31.25V27.4325ZM29.9324 17.5C29.6484 20.0365 28.5106 22.4011 26.7058 24.2059C24.901 26.0107 22.5364 27.1484 19.9999 27.4325V31.25C19.9999 31.5815 20.1316 31.8995 20.366 32.1339C20.6005 32.3683 20.9184 32.5 21.2499 32.5H33.7499C34.0814 32.5 34.3994 32.3683 34.6338 32.1339C34.8682 31.8995 34.9999 31.5815 34.9999 31.25V18.75C34.9999 18.4185 34.8682 18.1005 34.6338 17.8661C34.3994 17.6317 34.0814 17.5 33.7499 17.5H29.9324ZM27.4124 17.5H21.2499C20.9184 17.5 20.6005 17.6317 20.366 17.8661C20.1316 18.1005 19.9999 18.4185 19.9999 18.75V24.9125C21.8699 24.6422 23.6022 23.7743 24.9382 22.4383C26.2742 21.1023 27.1421 19.3699 27.4124 17.5V17.5Z" fill="#0396A6"/>
<path d="M11.9875 18.9025C11.725 17.9375 11.3 16.97 10.57 16.2275C11.75 15.11 12.5 13.33 12.5 11.25C12.5 9.5075 12.1475 8.31 11.51 7.3525C11.2271 6.94068 10.9002 6.56094 10.535 6.22C10.395 6.08487 10.2534 5.95153 10.11 5.82C9.9575 5.6775 9.8175 5.5475 9.635 5.365C9.26 4.99 9.2175 4.69 9.2175 4.5325C9.21791 4.44496 9.23226 4.35804 9.26 4.275C9.3743 4.02782 9.40475 3.75007 9.34672 3.48399C9.28868 3.21791 9.14534 2.97806 8.93849 2.80093C8.73164 2.62379 8.4726 2.51905 8.20076 2.50264C7.92892 2.48622 7.65916 2.55904 7.4325 2.71L7.4275 2.7125L7.42 2.7175L7.3975 2.7325L7.3225 2.7825C6.9475 3.04998 6.58621 3.33618 6.24 3.64C5.615 4.1925 4.8 5.01 4.2225 5.985C3.71838 6.79332 3.31378 7.6596 3.0175 8.565C2.7175 9.4625 2.5 10.435 2.5 11.25C2.5 13.33 3.25 15.1075 4.43 16.23C3.7 16.97 3.275 17.9375 3.0125 18.905C2.5 20.785 2.5 23.11 2.5 24.9075V25C2.5 30.145 3.4625 33.2 4.5525 35.0175C5.1 35.9275 5.67 36.515 6.1475 36.885C6.40193 37.0835 6.67884 37.2513 6.9725 37.385C7.14233 37.447 7.31978 37.4857 7.5 37.5C7.71 37.5 8.0275 37.385 8.0275 37.385C8.32116 37.2513 8.59807 37.0835 8.8525 36.885C9.3275 36.515 9.9025 35.9275 10.4475 35.0175C11.5375 33.2025 12.5 30.145 12.5 25V24.91C12.5 23.11 12.5 20.7875 11.9875 18.9025ZM6.2175 17.9775C6.5 17.6925 6.8775 17.5 7.5 17.5C8.125 17.5 8.5 17.695 8.7825 17.975C9.0975 18.2925 9.37 18.8075 9.575 19.56C9.99 21.0875 10 23.0925 10 25C10 29.855 9.0875 32.425 8.3025 33.7325C8.0025 34.2325 7.72 34.555 7.5 34.7575C7.18566 34.4552 6.9155 34.1102 6.6975 33.7325C5.9125 32.4225 5 29.855 5 25C5 23.0925 5.01 21.0875 5.425 19.56C5.63 18.81 5.9025 18.2925 6.2175 17.975V17.9775ZM7.5 15C6.5375 15 5 13.93 5 11.25C5 10.8175 5.13 10.1325 5.39 9.3575C5.62693 8.62584 5.95359 7.92635 6.3625 7.275C6.58 6.9075 6.8625 6.55 7.1675 6.2225C7.34 6.5275 7.5675 6.835 7.8675 7.135C8.05 7.3175 8.2875 7.5375 8.49 7.7275L8.8 8.0175C9.0625 8.2725 9.265 8.495 9.4275 8.7425C9.7275 9.19 10 9.8675 10 11.25C10 13.93 8.4625 15 7.5 15Z" fill="#0396A6"/>
</svg>
